<svg xmlns="http://www.w3.org/2000/svg" version="1.1" xmlns:xlink="http://www.w3.org/1999/xlink" xmlns:svgjs="http://svgjs.dev/svgjs" width="100%" height="100%" viewBox="0 0 1000 600"><rect width="1000" height="600" x="0" y="0" fill="#f3f4f6"/><g><circle r="166.66666666666666" cx="414.1615549723307" cy="436.383805900236" fill="#233c61" transform="matrix(0.5050609258513182,0,0,0.5050609258513182,0,79.59960108654849)"/><path d="M338.49692978291006 448.519036178136L338.49692978291006 448.519036178136L338.81778541284393 415.19588718357255Q338.81778541284393 376.0744185909179 335.03627263148013 370.9636467712565L335.03627263148013 370.9636467712565Q333.22573014828174 368.64890258387624 333.22573014828174 367.75509047191747Q333.22573014828174 366.8383601006778 335.448801298538 365.6007740995042Q337.6718724487943 364.36318809833057 344.1119033067533 362.87350124506605Q350.5519341647123 361.3838143918015 355.5022781694067 361.3838143918015Q360.4526221741011 361.3838143918015 360.4526221741011 363.6985585791818L360.4526221741011 363.6985585791818L360.1088482848862 365.8528749515951Q358.13787798672087 383.6603624129265 358.13787798672087 400.6657107994231Q358.13787798672087 417.6710591859198 359.1233631358036 438.6183481687471Q360.1088482848862 459.56563715157455 360.1088482848862 469.46632516096344L360.1088482848862 469.46632516096344Q360.1088482848862 482.85058858106316 349.7956316084395 492.49917573836115Q339.48241493199276 502.1477628956591 325.2960124370582 502.97282022977487L325.2960124370582 502.97282022977487Q322.4999848047771 502.65196459984094 322.4999848047771 501.00184993160946L322.4999848047771 501.00184993160946Q322.4999848047771 499.8330187082788 323.23336910176886 499.16838918913004Q323.96675339876066 498.52667792926223 324.97515680712434 497.51827452089856Q325.96064195620704 496.5327893718159 328.5962417735212 492.4075027012372Q331.23184159083536 488.2822160306585 333.22573014828174 483.0797711738731Q335.1967004464471 477.9002445763687 336.8468151146786 468.6412678268477Q338.49692978291006 459.4052093366076 338.49692978291006 448.519036178136ZM387.4961681256726 437.1286613154826L387.4961681256726 437.1286613154826L387.67951419992056 441.2539479860613Q387.67951419992056 442.239433135144 388.98585497893714 442.239433135144L388.98585497893714 442.239433135144Q394.27997287284643 441.75814969024316 398.22191346917725 439.53507853998684Q402.186772324789 437.28908913044955 404.1806608822354 434.49306149816846L404.1806608822354 434.49306149816846Q408.12260147856614 428.39680452942434 408.466375367781 423.92774396963074L408.466375367781 423.92774396963074L408.62680318274795 421.9567736714654Q408.62680318274795 413.0415708111592 401.5221428056402 413.0415708111592L401.5221428056402 413.0415708111592Q396.25094317101184 413.0415708111592 392.9507138345489 417.6710591859198L392.9507138345489 417.6710591859198Q387.4961681256726 424.91322911871345 387.4961681256726 437.1286613154826ZM423.4778351968313 459.08435370667365L423.4778351968313 459.08435370667365Q423.4778351968313 465.3410384903847 420.91099015736006 470.06219990226924Q418.36706337716987 474.7604430548727 415.1355888185499 476.98351420512904Q411.9270325192109 479.20658535538536 407.64131803366524 480.5358443936829L407.64131803366524 480.5358443936829Q402.186772324789 482.1859590619144 397.23642832009455 482.1859590619144L397.23642832009455 482.1859590619144Q383.3708814550939 482.1859590619144 376.770422782168 471.7810693483437Q370.1699641092421 461.39909789405397 370.1699641092421 445.310479878797Q370.1699641092421 429.2218618635401 378.3517826725565 416.66265577755604Q386.5106829765899 404.126367950853 402.85140184393777 404.126367950853L402.85140184393777 404.126367950853Q417.7024338580211 404.126367950853 422.9736334926494 414.5312576644237L422.9736334926494 414.5312576644237Q425.12794986506276 418.49611652003546 425.12794986506276 422.02552844930835Q425.12794986506276 425.5778586378622 424.80709423512883 427.64050197315163Q424.4633203459139 429.7031453084409 422.4923500477486 433.8284319790196Q420.4984614903022 437.95371864959833 417.19823215383923 441.2539479860613Q413.89800281737627 444.55417732252425 406.8162606995495 447.53355102905334Q399.71160032244177 450.4900064763014 390.1546862022678 451.4984098846651L390.1546862022678 451.4984098846651Q388.8254271639702 451.4984098846651 388.8254271639702 452.6443228487147L388.8254271639702 452.6443228487147Q388.8254271639702 454.1340097019792 389.9025853501769 457.02171037138436Q390.9797435363835 459.9094110407894 392.2860843154001 461.8803813389548L392.2860843154001 461.8803813389548Q395.93008754107797 466.5098697137153 403.01182965890473 466.5098697137153L403.01182965890473 466.5098697137153Q410.11649003601246 466.5098697137153 415.0668340407069 461.8803813389548L415.0668340407069 461.8803813389548Q417.7024338580211 459.4052093366076 419.3525485262526 455.7841243702107L419.3525485262526 455.7841243702107Q420.01717804540135 454.45486533191314 421.094336231608 454.45486533191314Q422.1485761585337 454.45486533191314 422.81320567768245 456.2654078151116Q423.4778351968313 458.098868557591 423.4778351968313 459.08435370667365ZM454.0049565591136 437.79329083463136L454.0049565591136 437.79329083463136L454.83001389322936 470.795584199261Q454.83001389322936 481.2004739128317 452.10274103879124 489.1989464018982Q449.3754681843531 497.1974188909647 445.43352758802234 501.1622777465764L445.43352758802234 501.1622777465764Q437.3433820618319 509.57327890270074 431.2242068338068 510.71919186675035L431.2242068338068 510.71919186675035L428.4281792015257 511.3838213858992Q425.9530071991785 511.3838213858992 425.9530071991785 509.89413453263467L425.9530071991785 509.89413453263467L426.77806453329424 507.41896253028744Q438.8330689150964 490.7573880330057 438.8330689150964 425.5778586378622L438.8330689150964 425.5778586378622Q438.8330689150964 419.6420294840851 438.6497228408485 416.66265577755604L438.6497228408485 416.66265577755604Q435.1890656894186 416.66265577755604 431.7284085379887 417.1668574817379L431.7284085379887 417.1668574817379L431.5679807230217 417.1668574817379Q429.7574382398233 417.1668574817379 429.7574382398233 415.35631499853946L429.7574382398233 415.35631499853946L430.2387216847241 409.07671195554747Q430.3991494996911 407.5870251022829 432.55346587210437 407.5870251022829L432.55346587210437 407.5870251022829L438.4892950258815 407.5870251022829L438.4892950258815 396.5404241288444L438.8330689150964 380.8643347806454Q438.8330689150964 379.7184218165957 439.2455975821543 378.29748974117416Q439.65812624921216 376.89947592503364 442.7750095114272 374.0117752556285Q445.9148110329232 371.12407458622346 452.03398626094827 368.7405756210002Q458.1302432296924 366.3341583964959 462.50763075236193 366.3341583964959Q466.8850182750316 366.3341583964959 466.8850182750316 368.9926764730911L466.8850182750316 368.9926764730911Q466.8850182750316 369.9781616221738 465.3953314217671 370.64279114132256L465.3953314217671 370.64279114132256Q460.60541523203955 372.1095597353061 457.5572867476675 379.1225470752899Q454.5091582632955 386.1355344152737 454.5091582632955 402.9804549868034L454.5091582632955 402.9804549868034L454.5091582632955 407.5870251022829Q462.92015941941986 407.266169472349 465.555759236734 406.7619677681672L465.555759236734 406.7619677681672Q466.7016722007836 406.7619677681672 466.7016722007836 408.75585632561354Q466.7016722007836 410.72682662377895 464.98280275470916 413.61452729318404Q463.2410150493537 416.50222796258913 460.6970882691635 416.59390099971307Q458.1302432296924 416.66265577755604 454.3258121890475 416.50222796258913L454.3258121890475 416.50222796258913Q454.0049565591136 429.03851578929215 454.0049565591136 437.79329083463136ZM492.94307907752034 437.79329083463136L492.94307907752034 437.79329083463136L493.7681364116361 470.795584199261Q493.7681364116361 481.2004739128317 491.04086355719795 489.1989464018982Q488.33650896204085 497.1974188909647 484.37165010642906 501.1622777465764L484.37165010642906 501.1622777465764Q476.28150458023856 509.57327890270074 470.18524761149456 510.71919186675035L470.18524761149456 510.71919186675035L467.3663017199324 511.3838213858992Q464.89112971758516 511.3838213858992 464.89112971758516 509.89413453263467L464.89112971758516 509.89413453263467L465.7161870517009 507.41896253028744Q477.77119143350313 490.7573880330057 477.77119143350313 425.5778586378622L477.77119143350313 425.5778586378622Q477.77119143350313 419.6420294840851 477.61076361853617 416.66265577755604L477.61076361853617 416.66265577755604Q474.12718820782527 416.66265577755604 470.66653105639534 417.1668574817379L470.66653105639534 417.1668574817379L470.50610324142843 417.1668574817379Q468.69556075823 417.1668574817379 468.69556075823 415.35631499853946L468.69556075823 415.35631499853946L469.1768442031308 409.07671195554747Q469.3601902773788 407.5870251022829 471.49158839051114 407.5870251022829L471.49158839051114 407.5870251022829L477.42741754428823 407.5870251022829L477.42741754428823 396.5404241288444L477.77119143350313 380.8643347806454Q477.77119143350313 379.7184218165957 478.183720100561 378.29748974117416Q478.5962487676189 376.89947592503364 481.7360502891149 374.0117752556285Q484.8529335513299 371.12407458622346 490.972108779355 368.7405756210002Q497.06836574809904 366.3341583964959 501.44575327076865 366.3341583964959Q505.82314079343826 366.3341583964959 505.82314079343826 368.9926764730911L505.82314079343826 368.9926764730911Q505.82314079343826 369.9781616221738 504.33345394017374 370.64279114132256L504.33345394017374 370.64279114132256Q499.54353775044626 372.1095597353061 496.49540926607426 379.1225470752899Q493.4472807817022 386.1355344152737 493.4472807817022 402.9804549868034L493.4472807817022 402.9804549868034L493.4472807817022 407.5870251022829Q501.8582819378265 407.266169472349 504.4938817551407 406.7619677681672L504.4938817551407 406.7619677681672Q505.66271297847135 406.7619677681672 505.66271297847135 408.75585632561354Q505.66271297847135 410.72682662377895 503.9209252731159 413.61452729318404Q502.17913756776045 416.50222796258913 499.63521078757026 416.59390099971307Q497.06836574809904 416.66265577755604 493.28685296673524 416.50222796258913L493.28685296673524 416.50222796258913Q492.94307907752034 429.03851578929215 492.94307907752034 437.79329083463136Z " fill="#f3f4f6" transform="matrix(0.5050609258513182,0,0,0.5050609258513182,0,79.59960108654849)"/><path d="M678.5158234381053 441.1959841424438L678.5158234381053 441.1959841424438L678.8037312979504 411.29469641281935Q678.8037312979504 376.1905023588517 675.4105315212048 371.60454144846227L675.4105315212048 371.60454144846227Q673.7859085977933 369.52749188815136 673.7859085977933 368.72546285001147Q673.7859085977933 367.9028689647398 675.780698769577 366.7923672196231Q677.7754889413608 365.68186547450637 683.5542109853941 364.34515041093994Q689.3329330294275 363.0084353473735 693.7749400098944 363.0084353473735Q698.2169469903613 363.0084353473735 698.2169469903613 365.0854849076844L698.2169469903613 365.0854849076844L697.9084742833844 367.0185805380728Q696.1398974300504 382.9974667594746 696.1398974300504 398.2565833312637Q696.1398974300504 413.51569990305285 697.0241858567174 432.31197018151005Q697.9084742833844 451.10824045996725 697.9084742833844 459.992254420901L697.9084742833844 459.992254420901Q697.9084742833844 472.0021251458671 688.6542930740784 480.65992578835125Q679.4001118647723 489.31772643083536 666.6704714901934 490.05806092757985L666.6704714901934 490.05806092757985Q664.161560140115 489.7701530677348 664.161560140115 488.28948407424576L664.161560140115 488.28948407424576Q664.161560140115 487.24067687052445 664.8196352483324 486.6442963037025Q665.4777103565497 486.0684805840123 666.3825636303484 485.16362731021354Q667.2668520570155 484.2793388835465 669.6318094771715 480.57766639982407Q671.9967668973275 476.87599391610166 673.7859085977933 472.20777361718507Q675.5544854511273 467.56011816540024 677.0351544446163 459.25191992415654Q678.5158234381053 450.9642865300447 678.5158234381053 441.1959841424438ZM722.483466605875 430.9752551179436L722.483466605875 430.9752551179436L722.6479853829293 434.676927601666Q722.6479853829293 435.56121602833304 723.8201816694414 435.56121602833304L723.8201816694414 435.56121602833304Q728.5706613568852 435.12935423856544 732.1078150635533 433.1345640667817Q735.6655336173532 431.11920904786615 737.454675317819 428.6102976977876L737.454675317819 428.6102976977876Q740.9918290244871 423.1400483607311 741.300301731464 419.1299031700318L741.300301731464 419.1299031700318L741.4442556613865 417.3613263166978Q741.4442556613865 409.36160078243097 735.0691530505312 409.36160078243097L735.0691530505312 409.36160078243097Q730.3392382102193 409.36160078243097 727.3779002232413 413.51569990305285L727.3779002232413 413.51569990305285Q722.483466605875 420.0141915966988 722.483466605875 430.9752551179436ZM754.7702766027872 450.6763786701996L754.7702766027872 450.6763786701996Q754.7702766027872 456.2905819371786 752.4670137240266 460.5269404463276Q750.1843156923978 464.7427341083448 747.2846722468153 466.7375242801286Q744.4055936483644 468.7323144519123 740.5599672347195 469.9250755855562L740.5599672347195 469.9250755855562Q735.6655336173532 471.4057445790452 731.2235266368863 471.4057445790452L731.2235266368863 471.4057445790452Q718.7817941221525 471.4057445790452 712.8591181481967 462.06930398121193Q706.9364421742407 452.7534282305105 706.9364421742407 438.3169055439931Q706.9364421742407 423.8803828574756 714.2780926002903 412.610846629254Q721.5991781792079 401.3618752481642 736.2619141841751 401.3618752481642L736.2619141841751 401.3618752481642Q749.5879351255758 401.3618752481642 754.3178499658878 410.6983158459974L754.3178499658878 410.6983158459974Q756.2509455962762 414.2560343997973 756.2509455962762 417.42302085809314Q756.2509455962762 420.61057216352077 755.9630377364311 422.46140840538203Q755.6545650294543 424.31224464724323 753.8859881761202 428.01391713096564Q752.0968464756544 431.7155896146881 749.1355084886765 434.676927601666Q746.1741705016984 437.63826558864395 739.819632737975 440.3116957157768Q733.4445301271197 442.9645609957779 724.8689888731628 443.8694142695767L724.8689888731628 443.8694142695767Q723.6762277395189 443.8694142695767 723.6762277395189 444.8976566261663L723.6762277395189 444.8976566261663Q723.6762277395189 446.2343716897327 724.6427755547131 448.8255424283384Q725.6093233699073 451.4167131669441 726.7815196564193 453.18529002027816L726.7815196564193 453.18529002027816Q730.0513303503742 457.3393891409 736.4058681140976 457.3393891409L736.4058681140976 457.3393891409Q742.7809707249529 457.3393891409 747.2229777054199 453.18529002027816L747.2229777054199 453.18529002027816Q749.5879351255758 450.9642865300447 751.0686041190647 447.7150406832217L751.0686041190647 447.7150406832217Q751.6649846858868 446.5222795495778 752.631532501081 446.5222795495778Q753.5775154691433 446.5222795495778 754.1738960359653 448.14690247298927Q754.7702766027872 449.7920902435326 754.7702766027872 450.6763786701996ZM782.1626529823332 431.57163568476557L782.1626529823332 431.57163568476557L782.9029874790776 461.1850155545449Q782.9029874790776 470.52145615237816 780.4557706703945 477.6985878013733Q778.0085538617113 484.8757194503684 774.4714001550433 488.43343800416835L774.4714001550433 488.43343800416835Q767.2120091175209 495.9807369015357 761.7211949333326 497.0089792581253L761.7211949333326 497.0089792581253L759.2122835832541 497.60535982494724Q756.9912800930207 497.60535982494724 756.9912800930207 496.2686447613808L756.9912800930207 496.2686447613808L757.7316145897652 494.04764127114737Q768.5487241810873 479.0969974063351 768.5487241810873 420.61057216352077L768.5487241810873 420.61057216352077Q768.5487241810873 415.2842767563869 768.3842054040331 412.610846629254L768.3842054040331 412.610846629254Q765.2789134871326 412.610846629254 762.1736215702321 413.06327326615343L762.1736215702321 413.06327326615343L762.0296676403095 413.06327326615343Q760.405044716898 413.06327326615343 760.405044716898 411.4386503427419L760.405044716898 411.4386503427419L760.8369065066656 405.8038822286311Q760.9808604365882 404.46716716506467 762.9139560669765 404.46716716506467L762.9139560669765 404.46716716506467L768.2402514741106 404.46716716506467L768.2402514741106 394.5549108475413L768.5487241810873 380.48855540939604Q768.5487241810873 379.4603130528065 768.9188914294596 378.1852925306354Q769.2890586778318 376.93083685559617 772.0858778877555 374.3396661169905Q774.9032619448109 371.7484953783848 780.3940761289991 369.6097512766785Q785.8643254660556 367.45044232784045 789.7922112682277 367.45044232784045Q793.7200970703999 367.45044232784045 793.7200970703999 369.8359645951282L793.7200970703999 369.8359645951282Q793.7200970703999 370.72025302179526 792.3833820068334 371.3166335886172L792.3833820068334 371.3166335886172Q788.085328956289 372.6327838050518 785.3502042877608 378.9256270273799Q782.6150796192326 385.21847024970805 782.6150796192326 400.3336328915746L782.6150796192326 400.3336328915746L782.6150796192326 404.46716716506467Q790.1623785165999 404.1792593052196 792.527335936756 403.7268326683202L792.527335936756 403.7268326683202Q793.5555782933455 403.7268326683202 793.5555782933455 405.51597436878603Q793.5555782933455 407.28455122212006 792.0132147584612 409.8757219607258Q790.450286376445 412.4668926993315 788.1675883448162 412.54915208785866Q785.8643254660556 412.610846629254 782.4505608421782 412.4668926993315L782.4505608421782 412.4668926993315Q782.1626529823332 423.7158640804213 782.1626529823332 431.57163568476557ZM817.1023282592465 431.57163568476557L817.1023282592465 431.57163568476557L817.842662755991 461.1850155545449Q817.842662755991 470.52145615237816 815.3954459473078 477.6985878013733Q812.9687939857564 484.8757194503684 809.4110754319565 488.43343800416835L809.4110754319565 488.43343800416835Q802.1516843944343 495.9807369015357 796.6814350573778 497.0089792581253L796.6814350573778 497.0089792581253L794.1519588601675 497.60535982494724Q791.9309553699339 497.60535982494724 791.9309553699339 496.2686447613808L791.9309553699339 496.2686447613808L792.6712898666784 494.04764127114737Q803.4883994580007 479.0969974063351 803.4883994580007 420.61057216352077L803.4883994580007 420.61057216352077Q803.4883994580007 415.2842767563869 803.3444455280782 412.610846629254L803.3444455280782 412.610846629254Q800.2185887640459 412.610846629254 797.1132968471454 413.06327326615343L797.1132968471454 413.06327326615343L796.9693429172229 413.06327326615343Q795.3447199938114 413.06327326615343 795.3447199938114 411.4386503427419L795.3447199938114 411.4386503427419L795.776581783579 405.8038822286311Q795.9411005606333 404.46716716506467 797.8536313438899 404.46716716506467L797.8536313438899 404.46716716506467L803.1799267510238 404.46716716506467L803.1799267510238 394.5549108475413L803.4883994580007 380.48855540939604Q803.4883994580007 379.4603130528065 803.8585667063729 378.1852925306354Q804.2287339547452 376.93083685559617 807.0461180118006 374.3396661169905Q809.8429372217242 371.7484953783848 815.3337514059125 369.6097512766785Q820.8040007429689 367.45044232784045 824.731886545141 367.45044232784045Q828.6597723473132 367.45044232784045 828.6597723473132 369.8359645951282L828.6597723473132 369.8359645951282Q828.6597723473132 370.72025302179526 827.3230572837467 371.3166335886172L827.3230572837467 371.3166335886172Q823.0250042332024 372.6327838050518 820.2898795646742 378.9256270273799Q817.5547548961459 385.21847024970805 817.5547548961459 400.3336328915746L817.5547548961459 400.3336328915746L817.5547548961459 404.46716716506467Q825.1020537935133 404.1792593052196 827.4670112136693 403.7268326683202L827.4670112136693 403.7268326683202Q828.5158184173906 403.7268326683202 828.5158184173906 405.51597436878603Q828.5158184173906 407.28455122212006 826.9528900353745 409.8757219607258Q825.3899616533583 412.4668926993315 823.1072636217295 412.54915208785866Q820.8040007429689 412.610846629254 817.4108009662233 412.4668926993315L817.4108009662233 412.4668926993315Q817.1023282592465 423.7158640804213 817.1023282592465 431.57163568476557ZM876.6375607057821 417.64923417654285L875.8972262090376 428.8982055576327L876.4730419287279 434.0805470348441Q876.4730419287279 436.89793109189947 871.1467465215939 436.89793109189947L871.1467465215939 436.89793109189947Q860.3502017774034 436.89793109189947 860.3502017774034 428.7542516277101L860.3502017774034 428.7542516277101Q860.3502017774034 426.84172084445356 861.3784441339931 423.4279562205762Q862.4066864905826 420.0141915966988 862.4066864905826 417.5052802466203Q862.4066864905826 414.9963688965418 860.9260174970937 413.1455326546806Q859.4453485036047 411.29469641281935 856.648529293681 411.29469641281935Q853.8311452366257 411.29469641281935 851.836355064842 413.28948658460314Q849.8210000459263 415.2842767563869 849.3891382561587 417.3613263166978L849.3891382561587 417.3613263166978L848.7927576893368 419.4383758770087Q847.9084692626698 424.02433678739817 847.9084692626698 434.7591869901932Q847.9084692626698 445.4940371929882 848.1963771225148 451.6429264853938Q848.5048498294917 457.7712509306676 848.7927576893368 460.0745138094282Q849.0806655491818 462.3777766881888 849.0806655491818 462.8096384779564L849.0806655491818 462.8096384779564Q849.0806655491818 466.5113109616789 844.4947046387924 468.8145738404395Q839.908743728403 471.09727187206835 835.3227828180135 471.09727187206835Q830.7368219076241 471.09727187206835 830.7368219076241 469.18474108881173L830.7368219076241 469.18474108881173L831.4771564043685 464.59878017842226Q833.5336411175477 451.7046210267892 833.5336411175477 430.9752551179436Q833.5336411175477 410.24588920909804 832.0529721240588 402.8425442416532L832.0529721240588 402.8425442416532Q832.0529721240588 401.0739673883191 835.1788288880911 401.0739673883191L835.1788288880911 401.0739673883191Q843.157989575226 401.0739673883191 845.8314197023589 406.5442167253756L845.8314197023589 406.5442167253756Q845.9753736322814 407.1405972921975 846.3455408806536 407.1405972921975Q846.7157081290259 407.1405972921975 848.3403310524374 405.8038822286311L848.3403310524374 405.8038822286311Q853.2347646698037 401.81430188506357 859.8977751405041 401.81430188506357L859.8977751405041 401.81430188506357Q864.0518742611259 401.81430188506357 868.1854085346159 403.4389248084751L868.1854085346159 403.4389248084751Q876.6375607057821 406.85268943235246 876.6375607057821 417.64923417654285L876.6375607057821 417.64923417654285ZM898.5391229011399 389.37256937032987L898.5391229011399 389.37256937032987L894.9814043473399 389.22861544040734Q890.9918240037724 389.22861544040734 889.7990628701285 391.14114622366395L889.7990628701285 391.14114622366395Q889.5111550102835 391.59357286056337 889.058728373384 391.59357286056337L889.058728373384 391.59357286056337Q887.1461975901275 391.59357286056337 887.1461975901275 385.01282177839016Q887.1461975901275 378.41150584908513 889.1409877619112 376.6429289957511Q891.1357779336951 374.85378729528526 896.0919060924567 374.85378729528526Q901.0685990983502 374.85378729528526 902.8371759516842 376.56066960722393Q904.6057528050183 378.2675519191626 904.6057528050183 382.2571322627301Q904.6057528050183 386.2672774534294 903.2896025885836 387.8096409883138Q901.9528875250172 389.37256937032987 898.5391229011399 389.37256937032987ZM886.6937709532281 464.1463535415229L886.6937709532281 464.1463535415229L888.3183938766396 429.6385400543772Q888.3183938766396 417.3613263166978 885.521574666716 412.9193193362309L885.521574666716 412.9193193362309Q884.6167213929172 411.4386503427419 883.4445251064051 410.6983158459974L883.4445251064051 410.6983158459974Q882.5602366797381 410.38984313902057 882.5602366797381 409.5055547123535L882.5602366797381 409.5055547123535Q882.5602366797381 406.85268943235246 890.1075355771054 404.32321323514213Q897.6548344744728 401.81430188506357 901.1302936397456 401.81430188506357Q904.6057528050183 401.81430188506357 904.7702715820726 403.58287873839765L904.7702715820726 403.58287873839765Q904.7702715820726 406.5442167253756 903.947677696801 420.3843588450711Q903.1250838115293 434.2450658118984 903.1250838115293 449.4836175365557Q903.1250838115293 464.7427341083448 904.9142255119951 468.44440659206725L904.9142255119951 468.44440659206725Q905.3460873017627 469.18474108881173 905.3460873017627 469.9250755855562L905.3460873017627 469.9250755855562Q905.3460873017627 471.8376063688128 899.7318840347838 471.8376063688128Q894.097115920673 471.8376063688128 888.174439946717 468.87626838183485L888.174439946717 468.87626838183485Q886.6937709532281 468.13593388509037 886.6937709532281 464.1463535415229ZM914.3946200397509 469.61660287857933L914.3946200397509 469.61660287857933Q917.0474853197519 453.6377166571776 917.0474853197519 431.28372782492045Q917.0474853197519 408.9091741455316 915.7107702561855 402.2461636748312L915.7107702561855 402.2461636748312Q915.7107702561855 400.3336328915746 920.1527772366525 400.3336328915746L920.1527772366525 400.3336328915746Q926.9803064844072 400.3336328915746 929.2013099746406 405.51597436878603L929.2013099746406 405.51597436878603Q929.3452639045631 405.9478361585536 929.9416444713851 405.9478361585536Q930.5174601910752 405.9478361585536 930.8259328980521 405.65992829870856L930.8259328980521 405.65992829870856Q935.4118938084415 400.93001345839656 945.0362422661198 400.93001345839656Q954.6605907237982 400.93001345839656 960.2953588379089 405.8038822286311Q965.909562104888 410.6983158459974 965.909562104888 420.0141915966988L965.909562104888 420.0141915966988Q965.909562104888 425.64895971080966 964.9430142896938 436.01364266523245Q963.9970313216314 446.37832561965524 963.9970313216314 451.4167131669441L963.9970313216314 451.4167131669441Q963.9970313216314 463.40601904477836 967.9866116651989 468.7323144519123L967.9866116651989 468.7323144519123Q968.5829922320207 469.4726489486568 968.5829922320207 470.2129834454013L968.5829922320207 470.2129834454013Q968.5829922320207 472.14607907578966 964.4288931113989 472.14607907578966L964.4288931113989 472.14607907578966Q946.0644846227094 472.14607907578966 946.0644846227094 455.858720147411L946.0644846227094 455.858720147411Q946.0644846227094 449.62757146647823 948.8818686797648 438.52255401531096Q951.6992527368203 427.41753656414375 951.6992527368203 421.65937936724214L951.6992527368203 421.65937936724214Q951.6992527368203 409.8140274193304 941.9309503492194 409.8140274193304L941.9309503492194 409.8140274193304Q937.1804706617756 409.8140274193304 934.7538187002242 412.610846629254Q932.3066018915412 415.4282306863094 931.9981291845642 419.06820862863646Q931.7102213247191 422.68762172383174 931.7102213247191 432.7643968184094L931.7102213247191 432.7643968184094Q931.7102213247191 448.14690247298927 932.7384636813086 459.5603926311334L932.7384636813086 459.5603926311334L933.0469363882855 462.8096384779564Q933.0469363882855 466.9637375985783 927.6383815926245 469.2464356302071Q922.2298267969633 471.5496985089677 918.3019409947912 471.5496985089677Q914.3946200397509 471.5496985089677 914.3946200397509 469.61660287857933ZM1003.6666214388566 410.9862237058425L1003.6666214388566 410.9862237058425L1002.9262869421121 382.9974667594746Q1002.9262869421121 376.3344562887742 1001.4456179486232 372.4888298751293Q999.9649489551342 368.64320346148435 999.9649489551342 368.3552956016392L999.9649489551342 368.3552956016392Q999.9649489551342 365.0854849076844 1009.9594646611848 363.3169080543504Q1019.9539803672353 361.52776635388454 1025.218581232974 361.52776635388454Q1030.4626172515805 361.52776635388454 1030.9150438884799 364.0572425510949L1030.9150438884799 364.0572425510949Q1040.2514844863135 405.65992829870856 1046.6060222500369 421.80333329716467L1046.6060222500369 421.80333329716467Q1047.346356746781 423.57191015049875 1048.168950632053 423.57191015049875Q1048.9709796701927 423.57191015049875 1049.5673602370148 422.2351950869323L1049.5673602370148 422.2351950869323Q1059.50018140167 394.26700298769623 1067.0474802990375 366.87462660815027L1067.0474802990375 366.87462660815027Q1067.643860865859 365.0854849076844 1070.0088182860154 364.1189370924902Q1072.3737757061713 363.17295412442786 1078.2141922915998 362.268100850629Q1084.0751737241603 361.383812423962 1089.853895768194 361.383812423962Q1095.6120529650952 361.383812423962 1095.6120529650952 363.748769844118L1095.6120529650952 363.748769844118Q1095.6120529650952 363.91328862117234 1095.1801911753278 366.0520327228786Q1094.7277645384283 368.19077682458493 1094.2959027486609 371.3166335886172Q1093.8434761117614 374.42192550551766 1093.2470955449394 378.86393248598455L1093.2470955449394 378.86393248598455Q1091.910380481373 389.0846615104848 1091.5402132330007 402.3284230633584Q1091.1700459846284 415.57218461623194 1091.1700459846284 428.8982055576327L1091.1700459846284 428.8982055576327L1091.4785186916051 444.44522998926686Q1091.4785186916051 455.11838565066654 1092.8769282965673 459.6220871725288Q1094.2959027486609 464.1463535415229 1094.2959027486609 464.80442864974015Q1094.2959027486609 465.4830686050893 1093.2470955449394 466.36735703175634L1093.2470955449394 466.36735703175634Q1088.6611346345499 470.06902951547875 1079.3246940367167 470.06902951547875L1079.3246940367167 470.06902951547875Q1073.4020180627608 470.06902951547875 1072.6616835660163 466.0794491719112L1072.6616835660163 466.0794491719112Q1072.2298217762486 464.00239961160037 1072.2298217762486 459.47813324260625Q1072.2298217762486 454.974431720744 1073.1141102029158 431.7155896146881Q1073.9983986295829 408.47731235576396 1073.9983986295829 397.88641608289146Q1073.9983986295829 387.29551981001896 1072.8262023430707 387.29551981001896L1072.8262023430707 387.29551981001896Q1072.6616835660163 387.29551981001896 1072.6616835660163 387.37777919854614Q1072.6616835660163 387.43947373994155 1072.2298217762486 387.60399251699585Q1071.7773951393492 387.7479464469184 1069.9265588974881 392.1899534273853Q1068.075722655627 396.6319604078522 1062.6054733185704 414.091515622743Q1057.1146591343822 431.57163568476557 1052.6726521539154 446.7484928680275Q1048.2306451734485 461.9253500512894 1047.7987833836805 463.1181111849333L1047.7987833836805 463.1181111849333Q1046.1741604602694 467.1076915285008 1041.567634702748 467.1076915285008L1041.567634702748 467.1076915285008Q1039.3466312125147 467.1076915285008 1038.0304809960799 465.4830686050893L1038.0304809960799 465.4830686050893Q1033.2800013086362 443.56094156259985 1021.1467415008792 402.8425442416532L1021.1467415008792 402.8425442416532L1016.9926423802574 389.37256937032987Q1016.7047345204123 388.6322348735854 1016.3962618134354 388.6322348735854L1016.3962618134354 388.6322348735854Q1015.655927316691 388.6322348735854 1015.3680194568459 389.660477230175L1015.3680194568459 389.660477230175Q1014.771638890024 399.28482568785324 1014.771638890024 427.49979595267087Q1014.771638890024 455.7147662174885 1016.8486884503349 463.1181111849333L1016.8486884503349 463.1181111849333Q1016.9926423802574 463.40601904477836 1016.9926423802574 464.00239961160037L1016.9926423802574 464.00239961160037Q1016.9926423802574 467.1076915285008 1012.1187736100229 468.5061011334626Q1007.2243399926566 469.9250755855562 1003.2964541904845 469.9250755855562Q999.3685683883123 469.9250755855562 999.3685683883123 468.13593388509037L999.3685683883123 468.13593388509037Q999.3685683883123 467.99197995516784 1000.1089028850569 465.7709764649344L1000.1089028850569 465.7709764649344Q1002.3299063752903 458.223677567567 1003.0085463306394 443.8694142695767Q1003.6666214388566 429.4945861244546 1003.6666214388566 410.9862237058425ZM1152.4738552844983 424.1682907173207L1152.4738552844983 424.1682907173207L1152.185947424653 443.1290797728322Q1152.185947424653 462.8096384779564 1156.4840004751973 466.8197836686557L1156.4840004751973 466.8197836686557Q1157.0598161948874 467.3955993883459 1157.0598161948874 468.13593388509037L1157.0598161948874 468.13593388509037Q1157.0598161948874 470.3569373753238 1147.5177271257367 470.3569373753238Q1137.9756380565855 470.3569373753238 1137.3792574897634 464.7427341083448L1137.3792574897634 464.7427341083448Q1137.2353035598408 463.40601904477836 1137.2353035598408 459.25191992415654L1137.2353035598408 459.25191992415654L1137.8111192795309 435.56121602833304Q1137.8111192795309 434.5329736717435 1136.6389229930187 434.5329736717435L1136.6389229930187 434.5329736717435Q1129.5234858854192 434.5329736717435 1123.312902051618 438.52255401531096Q1117.0817533706854 442.53269920601025 1117.0817533706854 448.7432830398112L1117.0817533706854 448.7432830398112Q1117.0817533706854 452.013093733766 1118.8708950711512 454.23409722399947Q1120.6394719244854 456.45510071423297 1123.230642663091 456.45510071423297Q1125.8218134016965 456.45510071423297 1127.5286957136354 455.4062935105116Q1129.235578025574 454.37805115392206 1129.5234858854192 454.23409722399947L1129.5234858854192 454.23409722399947Q1132.0529620826296 454.5220050838446 1132.0529620826296 459.47813324260625Q1132.0529620826296 464.4342614013679 1127.4464363251082 467.47785877687306Q1122.8604754147186 470.52145615237816 1117.82208786743 470.52145615237816Q1112.8042651672727 470.52145615237816 1109.1642872249458 468.7323144519123Q1105.5448741297505 466.9637375985783 1103.920251206339 464.7427341083448Q1102.2750634357958 462.52173061811135 1101.2468210792063 459.70434656105596L1101.2468210792063 459.70434656105596Q1100.2185787226167 456.2905819371786 1100.2185787226167 453.7816705871001L1100.2185787226167 453.7816705871001Q1100.2185787226167 443.41698763267726 1106.7170704162627 437.20640379887635Q1113.2361269570406 430.9752551179436 1123.4568559815407 428.3223898379425L1123.4568559815407 428.3223898379425Q1136.926830852864 425.64895971080966 1137.523211419686 423.4279562205762L1137.523211419686 423.4279562205762Q1137.9756380565855 421.80333329716467 1137.9756380565855 417.95770688351973L1137.9756380565855 417.95770688351973Q1137.9756380565855 410.10193527917545 1129.9759125223186 410.10193527917545L1129.9759125223186 410.10193527917545Q1126.5621478984413 410.10193527917545 1123.90928261844 412.2406793808818Q1121.2358524913072 414.39998832971986 1121.2358524913072 417.64923417654285L1121.2358524913072 417.64923417654285L1122.1201409179744 421.2069527303427Q1121.832233058129 423.7158640804213 1116.7938455108404 424.1682907173207L1116.7938455108404 424.1682907173207L1115.169222587429 424.31224464724323Q1110.7272156069619 424.31224464724323 1108.1360448683563 422.0912411570098Q1105.5448741297505 419.8702376667763 1105.5448741297505 416.1685651830539L1105.5448741297505 416.1685651830539Q1105.5448741297505 413.8036077628979 1107.0872376646348 410.9245291644471Q1108.650166046651 408.02488571886454 1111.015123466807 406.2563088655305Q1113.380080886963 404.46716716506467 1118.3567738928564 403.0687575601029Q1123.312902051618 401.67034795514104 1127.8988629620076 401.67034795514104Q1132.484823872397 401.67034795514104 1135.0143000696075 401.95825581498616Q1137.523211419686 402.2461636748312 1141.8829590116256 403.35666541994794Q1146.2632714506972 404.46716716506467 1149.1423500491478 407.59302392909694Q1152.0419934947304 410.6983158459974 1152.2476419660484 414.17377501127015Q1152.4738552844983 417.64923417654285 1152.4738552844983 424.1682907173207ZM1159.280819685121 410.84226977592L1159.280819685121 410.84226977592L1159.7332463220205 404.9195938019641Q1159.8772002519431 403.58287873839765 1161.8102958823315 403.58287873839765L1161.8102958823315 403.58287873839765L1166.9926373595426 403.58287873839765L1166.3962567927206 391.7375267904859L1166.3962567927206 391.14114622366395Q1166.3962567927206 387.7479464469184 1171.5785982699322 384.64265453001786Q1176.7609397471438 381.51679776598564 1181.058992797688 381.51679776598564L1181.058992797688 381.51679776598564Q1182.3957078612543 381.51679776598564 1182.3957078612543 382.70955889962954L1182.3957078612543 382.70955889962954L1182.3957078612543 382.8535128295521Q1181.7993272944325 386.86365802025136 1181.2029467276107 403.4389248084751L1181.2029467276107 403.4389248084751Q1187.7220032683883 403.4389248084751 1189.4905801217224 403.15101694863Q1191.2797218221883 402.8425442416532 1191.4236757521107 402.8425442416532L1191.4236757521107 402.8425442416532Q1192.4519181087003 402.8425442416532 1192.4519181087003 404.631685942119Q1192.4519181087003 406.40026279545305 1190.8272951852887 409.13538746398126Q1189.2026722618773 411.87051213250953 1187.269576631489 412.03503090956383L1187.269576631489 412.03503090956383L1181.058992797688 412.03503090956383Q1180.9150388677654 417.0528536097209 1180.9150388677654 428.9804649461598Q1180.9150388677654 440.90807628259876 1181.1206873390834 448.5993291098887Q1181.3469006575328 456.2905819371786 1181.6553733645098 460.21846773935073Q1181.943281224355 464.1463535415229 1182.313448472727 466.5113109616789Q1182.6836157210996 468.87626838183485 1182.909829039549 469.9250755855562Q1183.136042357999 470.95331794214576 1183.136042357999 471.26179064912264L1183.136042357999 471.26179064912264Q1183.136042357999 472.7424596426116 1181.2029467276107 472.8864135725342L1181.2029467276107 472.8864135725342Q1175.424224683577 472.8864135725342 1169.727762028071 471.26179064912264Q1164.0312993725647 469.61660287857933 1164.0312993725647 465.62702253501186L1164.0312993725647 465.62702253501186Q1167.1365912894653 440.7435575055444 1167.1365912894653 412.1789848394864L1167.1365912894653 412.1789848394864Q1163.1470109458978 412.1789848394864 1161.0699613855868 412.4668926993315L1161.0699613855868 412.4668926993315L1160.9260074556641 412.4668926993315Q1159.5892923920978 412.4668926993315 1159.280819685121 410.84226977592ZM1213.7776645843678 389.0846615104848L1213.7776645843678 389.0846615104848L1213.6337106544452 403.4389248084751Q1213.6337106544452 404.32321323514213 1214.2300912212672 404.32321323514213Q1214.8059069409574 404.32321323514213 1215.4022875077794 403.8913514453745L1215.4022875077794 403.8913514453745Q1219.1039599915018 401.3618752481642 1227.1036855257685 401.3618752481642L1227.1036855257685 401.3618752481642Q1240.5736603970918 401.3618752481642 1245.7560018743034 410.55436191607487L1245.7560018743034 410.55436191607487Q1247.6890975046917 413.94756169282044 1247.6890975046917 419.5823298069312Q1247.6890975046917 425.19653307391025 1247.0104575493424 435.12935423856544Q1246.3523824411252 445.0416105560888 1246.3523824411252 449.19570967671063L1246.3523824411252 449.19570967671063Q1246.3523824411252 463.6939269046235 1250.506481561747 468.44440659206725L1250.506481561747 468.44440659206725Q1251.2468160584913 469.18474108881173 1251.2468160584913 469.9250755855562L1251.2468160584913 469.9250755855562Q1251.2468160584913 471.4057445790452 1244.8717134476362 471.4057445790452L1244.8717134476362 471.4057445790452Q1227.7000660925905 471.4057445790452 1227.7000660925905 455.4062935105116L1227.7000660925905 455.4062935105116Q1227.7000660925905 449.19570967671063 1230.6614040795685 437.94673829562083Q1233.6227420665464 426.6772020673992 1233.6227420665464 421.35090666026525Q1233.6227420665464 416.02461125313135 1231.093265869336 413.1455326546806Q1228.5843545192574 410.24588920909804 1224.1423475387908 410.24588920909804Q1219.7003405583237 410.24588920909804 1217.109169819718 412.1789848394864Q1214.5179990811123 414.091515622743 1213.9216185142905 416.1685651830539L1213.9216185142905 416.1685651830539L1213.489756724523 418.10166081344227Q1213.3252379474684 420.91904487049766 1213.3252379474684 436.01364266523245Q1213.3252379474684 451.10824045996725 1214.0655724442129 455.6325068289613Q1214.8059069409574 460.1567731979554 1214.8059069409574 460.7325889176455L1214.8059069409574 460.7325889176455Q1214.8059069409574 465.0306419681899 1209.0477497440559 468.3621472035401Q1203.2690277000224 471.69365243889024 1197.6342595859116 471.69365243889024L1197.6342595859116 471.69365243889024Q1195.5572100256009 471.69365243889024 1195.5572100256009 469.32869501873427L1195.5572100256009 469.32869501873427L1195.8656827325776 466.5113109616789Q1199.1149285794008 441.64841077934324 1199.1149285794008 412.610846629254L1199.1149285794008 412.610846629254Q1199.1149285794008 401.3618752481642 1198.2306401527337 389.82499600722934L1198.2306401527337 389.82499600722934L1198.0866862228113 386.5551853132745Q1197.778213515834 382.4216510397844 1196.3798039108724 379.4603130528065Q1194.9813943059107 376.4989750658286 1193.7886331722668 375.59412179202974L1193.7886331722668 375.59412179202974L1192.4519181087003 374.85378729528526Q1191.4236757521107 374.27797157559513 1191.4236757521107 373.53763707885065L1191.4236757521107 373.53763707885065Q1191.4236757521107 371.46058751853974 1198.3745940826561 368.41699014303464Q1205.3460772603335 365.3939576146613 1209.1094442854514 365.3939576146613Q1212.893376157701 365.3939576146613 1213.1812840175457 367.0185805380728L1213.1812840175457 367.0185805380728Q1213.7776645843678 374.5658794354402 1213.7776645843678 389.0846615104848ZM1269.7551784771035 430.9752551179436L1269.7551784771035 430.9752551179436L1269.8991324070262 434.676927601666Q1269.8991324070262 435.56121602833304 1271.0713286935384 435.56121602833304L1271.0713286935384 435.56121602833304Q1275.821808380982 435.12935423856544 1279.379526934782 433.1345640667817Q1282.91668064145 431.11920904786615 1284.7058223419158 428.6102976977876L1284.7058223419158 428.6102976977876Q1288.2635408957158 423.1400483607311 1288.551448755561 419.1299031700318L1288.551448755561 419.1299031700318L1288.6954026854833 417.3613263166978Q1288.6954026854833 409.36160078243097 1282.34086492176 409.36160078243097L1282.34086492176 409.36160078243097Q1277.5903852343163 409.36160078243097 1274.6290472473383 413.51569990305285L1274.6290472473383 413.51569990305285Q1269.7551784771035 420.0141915966988 1269.7551784771035 430.9752551179436ZM1302.021423626884 450.6763786701996L1302.021423626884 450.6763786701996Q1302.021423626884 456.2905819371786 1299.7387255952553 460.5269404463276Q1297.4354627164948 464.7427341083448 1294.5563841180438 466.7375242801286Q1291.6567406724612 468.7323144519123 1287.8111142588164 469.9250755855562L1287.8111142588164 469.9250755855562Q1282.91668064145 471.4057445790452 1278.4746736609832 471.4057445790452L1278.4746736609832 471.4057445790452Q1266.0535059933813 471.4057445790452 1260.1308300194255 462.06930398121193Q1254.2081540454694 452.7534282305105 1254.2081540454694 438.3169055439931Q1254.2081540454694 423.8803828574756 1261.5292396243872 412.610846629254Q1268.8503252033047 401.3618752481642 1283.5130612082721 401.3618752481642L1283.5130612082721 401.3618752481642Q1296.8390821496728 401.3618752481642 1301.5895618371164 410.6983158459974L1301.5895618371164 410.6983158459974Q1303.5020926203733 414.2560343997973 1303.5020926203733 417.42302085809314Q1303.5020926203733 420.61057216352077 1303.214184760528 422.46140840538203Q1302.9057120535513 424.31224464724323 1301.137135200217 428.01391713096564Q1299.3685583468832 431.7155896146881 1296.4072203599053 434.676927601666Q1293.4458823729274 437.63826558864395 1287.070779762072 440.3116957157768Q1280.6956771512168 442.9645609957779 1272.1201358972598 443.8694142695767L1272.1201358972598 443.8694142695767Q1270.9273747636157 443.8694142695767 1270.9273747636157 444.8976566261663L1270.9273747636157 444.8976566261663Q1270.9273747636157 446.2343716897327 1271.89392257881 448.8255424283384Q1272.860470394004 451.4167131669441 1274.0326666805163 453.18529002027816L1274.0326666805163 453.18529002027816Q1277.302477374471 457.3393891409 1283.6570151381948 457.3393891409L1283.6570151381948 457.3393891409Q1290.03211774905 457.3393891409 1294.474124729517 453.18529002027816L1294.474124729517 453.18529002027816Q1296.8390821496728 450.9642865300447 1298.3197511431617 447.7150406832217L1298.3197511431617 447.7150406832217Q1298.9161317099838 446.5222795495778 1299.882679525178 446.5222795495778Q1300.8492273403722 446.5222795495778 1301.4250430600623 448.14690247298927Q1302.021423626884 449.7920902435326 1302.021423626884 450.6763786701996ZM1364.8059019202428 471.5496985089677L1364.8059019202428 471.5496985089677Q1363.3252329267539 472.5779408655573 1362.5848984300092 472.5779408655573L1362.5848984300092 472.5779408655573Q1360.960275506598 472.5779408655573 1360.363894939776 471.26179064912264L1360.363894939776 471.26179064912264Q1355.921887959309 462.3777766881888 1352.9605499723311 447.26261404632226L1352.9605499723311 447.26261404632226Q1352.8165960424085 446.6662334795003 1352.5081233354317 446.6662334795003L1352.5081233354317 446.6662334795003L1351.6238349087644 447.26261404632226Q1347.634254565197 454.37805115392206 1342.3696536994585 460.44468105780044Q1337.125617680852 466.5113109616789 1333.8558069868968 469.0407871588892L1333.8558069868968 469.0407871588892L1330.606561140074 471.5496985089677Q1329.125892146585 472.8864135725342 1328.2416037199177 472.8864135725342L1328.2416037199177 472.8864135725342Q1326.5964159493747 472.8864135725342 1326.0206002296845 471.4057445790452L1326.0206002296845 471.4057445790452Q1322.7507895357298 465.17459589811244 1318.4527364851851 447.26261404632226L1318.4527364851851 447.26261404632226L1317.1365862687508 441.1959841424438Q1314.3192022116955 428.1578710608882 1311.419558766113 420.3226643036757Q1308.5404801676618 412.4668926993315 1307.0598111741729 411.13017763576505L1307.0598111741729 411.13017763576505L1305.579142180684 409.8140274193304Q1304.2424271171176 409.36160078243097 1304.2424271171176 408.3333584258414L1304.2424271171176 408.3333584258414Q1304.2424271171176 406.2563088655305 1310.3913164095234 403.8913514453745Q1316.5402057019287 401.50582917808674 1319.9334054786746 401.50582917808674Q1323.3471701025514 401.50582917808674 1324.4576718476683 404.2615186937468Q1325.5681735927851 406.996643362275 1327.933131012941 419.5823298069312L1327.933131012941 419.5823298069312Q1334.164279693874 452.7534282305105 1336.9610989037974 452.7534282305105L1336.9610989037974 452.7534282305105Q1337.8659521775962 452.7534282305105 1338.976453922713 451.19049984849437Q1340.08695566783 449.62757146647823 1341.6293192027142 447.4065679762448Q1343.19224758473 445.18556448601134 1345.8451128647312 439.71531514895486Q1348.5185429918643 434.2450658118984 1348.5185429918643 430.09096669127655L1348.5185429918643 430.09096669127655Q1348.5185429918643 429.35063219453207 1347.4903006352747 424.6824118956155Q1346.4414934315532 420.0141915966988 1344.4467032597695 415.6544440047591Q1342.4519130879858 411.29469641281935 1341.2591519543416 410.6983158459974L1341.2591519543416 410.6983158459974Q1338.606286674341 409.21764685250844 1338.606286674341 408.16883964878707L1338.606286674341 408.16883964878707Q1338.606286674341 406.40026279545305 1344.672916578219 403.9530459867699Q1350.7395464820975 401.50582917808674 1355.6339800994638 401.50582917808674L1355.6339800994638 401.50582917808674Q1357.8549835896974 401.50582917808674 1358.7392720163643 404.1792593052196L1358.7392720163643 404.1792593052196Q1360.960275506598 411.13017763576505 1364.0655674234986 429.20667826460954L1364.0655674234986 429.20667826460954Q1368.055147767066 452.30100159361115 1371.4689123909434 452.30100159361115L1371.4689123909434 452.30100159361115Q1372.661673524587 452.30100159361115 1375.026630944743 448.9694963582609Q1377.3915883648992 445.63799112291076 1379.6948512436597 439.26288851205544Q1381.9775492752883 432.908350748332 1381.9775492752883 428.3840843793379Q1381.9775492752883 423.8803828574756 1381.6073820269162 421.43316604879243Q1381.237214778544 418.9859492401093 1379.0162112883104 415.7367033932863Q1376.7952077980772 412.4668926993315 1373.977823741022 411.9527715210367Q1371.181004531098 411.4386503427419 1371.181004531098 410.10193527917545L1371.181004531098 410.10193527917545Q1371.181004531098 408.02488571886454 1377.309328976372 404.77563987204155Q1383.4582182687777 401.50582917808674 1389.9772748095552 401.50582917808674L1389.9772748095552 401.50582917808674Q1396.1878586433563 401.50582917808674 1396.1878586433563 413.94756169282044L1396.1878586433563 413.94756169282044Q1396.1878586433563 429.4945861244546 1387.0159368225773 445.9258989827558Q1377.8440150017982 462.3777766881888 1364.8059019202428 471.5496985089677ZM1449.204034549114 401.95825581498616L1449.204034549114 401.95825581498616L1449.3479884790368 420.46661823359824L1448.7516079122147 446.0904177598101Q1448.9161266892688 446.6662334795003 1449.204034549114 446.6662334795003Q1449.4919424089594 446.6662334795003 1449.6564611860135 446.37832561965524L1449.6564611860135 446.37832561965524Q1452.6177991729915 442.2242264990334 1456.977546764931 442.2242264990334Q1461.337294356871 442.2242264990334 1461.337294356871 444.0133681994992L1461.337294356871 444.0133681994992Q1461.337294356871 449.62757146647823 1463.496603305709 452.6711688419834Q1465.6353474074153 455.7147662174885 1469.5632332095875 455.7147662174885Q1473.4911190117596 455.7147662174885 1477.110532106955 450.36790596322277Q1480.7505100492817 445.0416105560888 1480.7505100492817 436.157596595155L1480.7505100492817 436.157596595155Q1480.7505100492817 433.19625860817706 1479.557748915638 429.062724334687L1479.557748915638 429.062724334687Q1477.1927914954817 420.75452609344336 1470.6737349547043 417.95770688351973L1470.6737349547043 417.95770688351973Q1465.943820114392 416.02461125313135 1455.2706644529926 416.02461125313135L1455.2706644529926 416.02461125313135Q1454.0984681664804 416.02461125313135 1454.0984681664804 414.39998832971986L1454.0984681664804 414.39998832971986Q1454.0984681664804 406.112354935608 1457.0598061534583 405.8038822286311L1457.0598061534583 405.8038822286311Q1461.0493864970258 405.8038822286311 1465.4913934774927 403.7268326683202L1465.4913934774927 403.7268326683202Q1474.3754074384265 399.59329839483013 1474.3754074384265 386.69913924319707L1474.3754074384265 386.69913924319707Q1474.3754074384265 372.79730258210617 1458.3759563698932 372.79730258210617L1458.3759563698932 372.79730258210617L1453.7899954595036 373.08521044195123Q1451.1371301795025 373.6815910087732 1450.8286574725257 375.3062139321847L1450.8286574725257 375.3062139321847L1450.8286574725257 375.7586405690841Q1449.204034549114 381.68131654303994 1449.204034549114 401.95825581498616ZM1427.446426283679 470.6654100823007L1427.446426283679 470.6654100823007L1427.734334143524 469.0407871588892Q1429.215003137013 466.36735703175634 1430.2432454936024 447.34487343484943Q1431.292052697324 428.3223898379425 1431.292052697324 411.8088175911141Q1431.292052697324 395.2952453442858 1430.613412741975 385.3007296382352Q1429.9553376337576 375.3062139321847 1426.9939996467797 370.8642069517178L1426.9939996467797 370.8642069517178Q1426.3976190799576 370.1238724549733 1426.3976190799576 369.0956300983837Q1426.3976190799576 368.0468228946624 1428.1867607804234 367.3064883979179L1428.1867607804234 367.3064883979179Q1440.3200205881803 362.5765735576059 1461.1933404269485 362.5765735576059L1461.1933404269485 362.5765735576059Q1466.3756819041596 362.5765735576059 1472.442311808038 363.9749831625677Q1478.5295065590485 365.3939576146613 1482.4368275140887 367.45044232784045Q1486.3647133162608 369.52749188815136 1489.5522646216887 373.8255449386957Q1492.739815927116 378.12359798924007 1493.171677716884 384.046273963196L1493.171677716884 384.046273963196Q1493.171677716884 405.51597436878603 1475.403649795016 408.765220215609L1475.403649795016 408.765220215609Q1474.519361368349 409.0736929225859 1474.519361368349 409.44386017095815Q1474.519361368349 409.8140274193304 1475.2596958650934 410.24588920909804L1475.2596958650934 410.24588920909804Q1484.4521825330044 411.726558202587 1490.662766366805 417.64923417654285L1490.662766366805 417.64923417654285Q1493.7680582837056 420.46661823359824 1496.297534480916 426.38929420755414Q1498.8064458309946 432.31197018151005 1498.8064458309946 440.0032230087999L1498.8064458309946 440.0032230087999Q1498.8064458309946 449.9360441734551 1493.0277237869614 458.82005813438894L1493.0277237869614 458.82005813438894Q1488.2978089466492 466.0794491719112 1479.2698410557928 469.18474108881173L1479.2698410557928 469.18474108881173Q1474.2314535085038 470.95331794214576 1468.0003048275712 470.95331794214576L1468.0003048275712 470.95331794214576Q1452.4532803959373 470.95331794214576 1448.3197461224472 461.0410616246224L1448.3197461224472 461.0410616246224Q1448.1757921925246 460.58863498772297 1447.8673194855478 460.58863498772297L1447.8673194855478 460.58863498772297L1447.2709389187257 461.1850155545449Q1444.1656470018252 471.5496985089677 1429.5029109968582 472.0021251458671L1429.5029109968582 472.0021251458671Q1427.446426283679 472.0021251458671 1427.446426283679 470.6654100823007ZM1518.6515233131731 430.9752551179436L1518.6515233131731 430.9752551179436L1518.7954772430958 434.676927601666Q1518.7954772430958 435.56121602833304 1519.9882383767394 435.56121602833304L1519.9882383767394 435.56121602833304Q1524.7181532170516 435.12935423856544 1528.2758717708516 433.1345640667817Q1531.8335903246511 431.11920904786615 1533.6021671779854 428.6102976977876L1533.6021671779854 428.6102976977876Q1537.1598857317854 423.1400483607311 1537.4477935916302 419.1299031700318L1537.4477935916302 419.1299031700318L1537.5917475215529 417.3613263166978Q1537.5917475215529 409.36160078243097 1531.2372097578295 409.36160078243097L1531.2372097578295 409.36160078243097Q1526.4867300703854 409.36160078243097 1523.5253920834075 413.51569990305285L1523.5253920834075 413.51569990305285Q1518.6515233131731 420.0141915966988 1518.6515233131731 430.9752551179436ZM1550.9177684629535 450.6763786701996L1550.9177684629535 450.6763786701996Q1550.9177684629535 456.2905819371786 1548.635070431325 460.5269404463276Q1546.331807552564 464.7427341083448 1543.4527289541134 466.7375242801286Q1540.5530855085308 468.7323144519123 1536.707459094886 469.9250755855562L1536.707459094886 469.9250755855562Q1531.8335903246511 471.4057445790452 1527.3915833441843 471.4057445790452L1527.3915833441843 471.4057445790452Q1514.9498508294505 471.4057445790452 1509.0271748554946 462.06930398121193Q1503.1044988815388 452.7534282305105 1503.1044988815388 438.3169055439931Q1503.1044988815388 423.8803828574756 1510.4255844604568 412.610846629254Q1517.7672348865062 401.3618752481642 1532.4094060443417 401.3618752481642L1532.4094060443417 401.3618752481642Q1545.7354269857424 401.3618752481642 1550.485906673186 410.6983158459974L1550.485906673186 410.6983158459974Q1552.3984374564425 414.2560343997973 1552.3984374564425 417.42302085809314Q1552.3984374564425 420.61057216352077 1552.1105295965976 422.46140840538203Q1551.8226217367524 424.31224464724323 1550.0334800362866 428.01391713096564Q1548.2649031829524 431.7155896146881 1545.3035651959744 434.676927601666Q1542.3422272089965 437.63826558864395 1535.9671245981413 440.3116957157768Q1529.612586834418 442.9645609957779 1521.016480733329 443.8694142695767L1521.016480733329 443.8694142695767Q1519.8237195996853 443.8694142695767 1519.8237195996853 444.8976566261663L1519.8237195996853 444.8976566261663Q1519.8237195996853 446.2343716897327 1520.7902674148795 448.8255424283384Q1521.7568152300737 451.4167131669441 1522.9495763637174 453.18529002027816L1522.9495763637174 453.18529002027816Q1526.1988222105406 457.3393891409 1532.5739248213958 457.3393891409L1532.5739248213958 457.3393891409Q1538.9284625851192 457.3393891409 1543.370469565586 453.18529002027816L1543.370469565586 453.18529002027816Q1545.7354269857424 450.9642865300447 1547.2160959792313 447.7150406832217L1547.2160959792313 447.7150406832217Q1547.812476546053 446.5222795495778 1548.7790243612471 446.5222795495778Q1549.7455721764413 446.5222795495778 1550.3419527432634 448.14690247298927Q1550.9177684629535 449.7920902435326 1550.9177684629535 450.6763786701996ZM1559.061447927143 469.61660287857933L1559.061447927143 469.61660287857933Q1561.7348780542757 453.6377166571776 1561.7348780542757 431.28372782492045Q1561.7348780542757 408.9091741455316 1560.3981629907094 402.2461636748312L1560.3981629907094 402.2461636748312Q1560.3981629907094 400.3336328915746 1564.8401699711762 400.3336328915746L1564.8401699711762 400.3336328915746Q1571.647134371799 400.3336328915746 1573.8681378620327 405.51597436878603L1573.8681378620327 405.51597436878603Q1574.0326566390872 405.9478361585536 1574.608472358777 405.9478361585536Q1575.204852925599 405.9478361585536 1575.5133256325757 405.65992829870856L1575.5133256325757 405.65992829870856Q1580.0992865429653 400.93001345839656 1589.7236350006438 400.93001345839656Q1599.3479834583222 400.93001345839656 1604.9621867253009 405.8038822286311Q1610.5969548394119 410.6983158459974 1610.5969548394119 420.0141915966988L1610.5969548394119 420.0141915966988Q1610.5969548394119 425.64895971080966 1609.6304070242177 436.01364266523245Q1608.6638592090235 446.37832561965524 1608.6638592090235 451.4167131669441L1608.6638592090235 451.4167131669441Q1608.6638592090235 463.40601904477836 1612.674004399723 468.7323144519123L1612.674004399723 468.7323144519123Q1613.2703849665445 469.4726489486568 1613.2703849665445 470.2129834454013L1613.2703849665445 470.2129834454013Q1613.2703849665445 472.14607907578966 1609.116285845923 472.14607907578966L1609.116285845923 472.14607907578966Q1590.7518773572333 472.14607907578966 1590.7518773572333 455.858720147411L1590.7518773572333 455.858720147411Q1590.7518773572333 449.62757146647823 1593.5692614142886 438.52255401531096Q1596.3866454713439 427.41753656414375 1596.3866454713439 421.65937936724214L1596.3866454713439 421.65937936724214Q1596.3866454713439 409.8140274193304 1586.6183430837432 409.8140274193304L1586.6183430837432 409.8140274193304Q1581.8678633962995 409.8140274193304 1579.4206465876164 412.610846629254Q1576.9939946260647 415.4282306863094 1576.685521919088 419.06820862863646Q1576.397614059243 422.68762172383174 1576.397614059243 432.7643968184094L1576.397614059243 432.7643968184094Q1576.397614059243 448.14690247298927 1577.4258564158326 459.5603926311334L1577.4258564158326 459.5603926311334L1577.7343291228094 462.8096384779564Q1577.7343291228094 466.9637375985783 1572.3257743271483 469.2464356302071Q1566.9172195314873 471.5496985089677 1562.9893337293151 471.5496985089677Q1559.061447927143 471.5496985089677 1559.061447927143 469.61660287857933ZM1618.1442537367793 469.61660287857933L1618.1442537367793 469.61660287857933Q1620.817683863912 453.6377166571776 1620.817683863912 431.28372782492045Q1620.817683863912 408.9091741455316 1619.4809688003456 402.2461636748312L1619.4809688003456 402.2461636748312Q1619.4809688003456 400.3336328915746 1623.9229757808125 400.3336328915746L1623.9229757808125 400.3336328915746Q1630.7299401814353 400.3336328915746 1632.950943671669 405.51597436878603L1632.950943671669 405.51597436878603Q1633.0948976015916 405.9478361585536 1633.6912781684132 405.9478361585536Q1634.2876587352353 405.9478361585536 1634.5755665950805 405.65992829870856L1634.5755665950805 405.65992829870856Q1639.1820923526016 400.93001345839656 1648.80644081028 400.93001345839656Q1658.430789267958 400.93001345839656 1664.0449925349371 405.8038822286311Q1669.6797606490481 410.6983158459974 1669.6797606490481 420.0141915966988L1669.6797606490481 420.0141915966988Q1669.6797606490481 425.64895971080966 1668.713212833854 436.01364266523245Q1667.7466650186598 446.37832561965524 1667.7466650186598 451.4167131669441L1667.7466650186598 451.4167131669441Q1667.7466650186598 463.40601904477836 1671.7568102093587 468.7323144519123L1671.7568102093587 468.7323144519123Q1672.3326259290493 469.4726489486568 1672.3326259290493 470.2129834454013L1672.3326259290493 470.2129834454013Q1672.3326259290493 472.14607907578966 1668.1990916555592 472.14607907578966L1668.1990916555592 472.14607907578966Q1649.8346831668696 472.14607907578966 1649.8346831668696 455.858720147411L1649.8346831668696 455.858720147411Q1649.8346831668696 449.62757146647823 1652.6520672239249 438.52255401531096Q1655.4694512809801 427.41753656414375 1655.4694512809801 421.65937936724214L1655.4694512809801 421.65937936724214Q1655.4694512809801 409.8140274193304 1645.6805840462475 409.8140274193304L1645.6805840462475 409.8140274193304Q1640.9506692059358 409.8140274193304 1638.5034523972522 412.610846629254Q1636.0562355885695 415.4282306863094 1635.7683277287242 419.06820862863646Q1635.4804198688794 422.68762172383174 1635.4804198688794 432.7643968184094L1635.4804198688794 432.7643968184094Q1635.4804198688794 448.14690247298927 1636.508662225469 459.5603926311334L1636.508662225469 459.5603926311334L1636.7965700853138 462.8096384779564Q1636.7965700853138 466.9637375985783 1631.4085801367846 469.2464356302071Q1626.0000253411235 471.5496985089677 1622.0721395389514 471.5496985089677Q1618.1442537367793 471.5496985089677 1618.1442537367793 469.61660287857933ZM1703.4266747923175 509.5946657027815L1703.4266747923175 509.5946657027815Q1703.4266747923175 511.3838074032474 1701.6580979389832 511.3838074032474L1701.6580979389832 511.3838074032474L1701.514144009061 511.3838074032474Q1696.6197103916948 511.3838074032474 1690.470821099289 507.97004277937003Q1684.3424966540151 504.57684300262446 1684.3424966540151 500.1348360221576Q1684.3424966540151 495.6928290416907 1689.9566999209942 484.6495061319187Q1695.5914680351052 473.6267480692786 1695.5914680351052 469.9250755855562L1695.5914680351052 469.9250755855562Q1695.5914680351052 465.9149303948569 1691.74584162146 455.55024744043413L1691.74584162146 455.55024744043413Q1686.851408004094 442.08027256911083 1683.972329405643 433.6486852450765Q1681.0726859600604 425.19653307391025 1677.7411807247104 418.75973592165957Q1674.4096754893603 412.32293876940895 1672.929006495871 411.13017763576505L1672.929006495871 411.13017763576505L1671.448337502382 410.10193527917545Q1669.8237145789703 409.21764685250844 1669.8237145789703 408.16883964878707L1669.8237145789703 408.16883964878707Q1669.8237145789703 406.112354935608 1676.2605117312214 403.9530459867699Q1682.6973088834716 401.81430188506357 1687.5917425008383 401.81430188506357L1687.5917425008383 401.81430188506357Q1689.8127459910716 401.81430188506357 1691.2934149845605 405.3720204388635L1691.2934149845605 405.3720204388635Q1693.9668451116936 412.32293876940895 1697.0721370285942 424.62071735422006L1697.0721370285942 424.62071735422006Q1704.6194359259616 449.7920902435326 1706.55253155635 449.7920902435326L1706.55253155635 449.7920902435326Q1707.8686817727844 449.7920902435326 1711.9405215048791 439.4274072891098Q1716.0123612369734 429.062724334687 1716.0123612369734 422.68762172383174L1716.0123612369734 422.68762172383174Q1716.0123612369734 411.58260427266447 1709.513869543328 409.6495086422761L1709.513869543328 409.6495086422761Q1708.0332005498385 409.36160078243097 1708.0332005498385 408.16883964878707L1708.0332005498385 408.16883964878707Q1708.0332005498385 405.51597436878603 1714.9841188803844 403.0687575601029Q1721.9350372109297 400.62154075141973 1727.5698053250403 400.62154075141973L1727.5698053250403 400.62154075141973Q1732.4642389424066 400.62154075141973 1732.4642389424066 406.996643362275L1732.4642389424066 406.996643362275Q1732.4642389424066 411.87051213250953 1730.3871893820956 418.38956867328733Q1728.310139821785 424.9086252140652 1726.5415629684508 428.69255708631476Q1724.752421267985 432.4559241114326 1717.7192435489123 446.15211230120553Q1710.6860658298397 459.8483004909785 1706.1001049194501 470.2129834454013L1706.1001049194501 470.2129834454013Q1701.0617173721616 482.654715960135 1701.0617173721616 495.52831026463633L1701.0617173721616 495.52831026463633Q1701.0617173721616 502.355839512391 1702.2544785058053 505.74903928913653Q1703.4266747923175 509.1628039130139 1703.4266747923175 509.5946657027815Z " fill="#233c61" transform="matrix(0.5050609258513182,0,0,0.5050609258513182,0,79.59960108654849)"/></g></svg>